<svg width="15" height="16" viewBox="0 0 15 16" fill="none" xmlns="http://www.w3.org/2000/svg">
<path d="M14.7888 4.96543C13.9014 1.58494 10.4958 0.0629883 7.50424 0.0629883C7.50424 0.0629883 7.50424 0.0629883 7.49579 0.0629883C4.51266 0.0629883 1.09857 1.57762 0.211249 4.95811C-0.777484 8.73372 1.89294 11.9313 4.30984 13.9435C5.20562 14.6898 6.35494 15.063 7.50424 15.063C8.65353 15.063 9.80283 14.6898 10.6902 13.9435C13.1071 11.9313 15.7775 8.74104 14.7888 4.96543ZM7.50424 8.63128C6.03381 8.63128 4.84224 7.59957 4.84224 6.3264C4.84224 5.05323 6.03381 4.02152 7.50424 4.02152C8.97466 4.02152 10.1662 5.05323 10.1662 6.3264C10.1662 7.59957 8.97466 8.63128 7.50424 8.63128Z" fill="#CF0018"/>
</svg>
