<svg width="16" height="16" viewBox="0 0 16 16" fill="none" xmlns="http://www.w3.org/2000/svg">
<g id="star 2" clip-path="url(#clip0_80_1851)">
<path id="Vector" d="M3.18708 14.422C3.11395 14.8382 3.52458 15.1635 3.88645 14.9779L8.00208 12.8629L12.1168 14.9779C12.4786 15.1635 12.8893 14.8382 12.8161 14.4229L12.038 9.98853L15.3399 6.84228C15.6493 6.54791 15.4899 6.00978 15.0755 5.95166L10.4836 5.29916L8.43614 1.2426C8.39713 1.16037 8.3356 1.09089 8.25868 1.04224C8.18176 0.993597 8.09262 0.967773 8.00161 0.967773C7.9106 0.967773 7.82145 0.993597 7.74454 1.04224C7.66762 1.09089 7.60608 1.16037 7.56708 1.2426L5.51958 5.3001L0.927702 5.9526C0.514265 6.01072 0.353952 6.54885 0.66239 6.84322L3.9652 9.98947L3.18708 14.4238V14.422ZM7.78551 11.8279L4.32989 13.6035L4.98051 9.89385C4.99576 9.80845 4.98979 9.72062 4.96315 9.63807C4.9365 9.55552 4.88999 9.48078 4.8277 9.42041L2.10333 6.82353L5.90208 6.28353C5.98074 6.27166 6.05535 6.24089 6.11951 6.19386C6.18368 6.14684 6.23549 6.08496 6.27051 6.01353L8.0002 2.58416L9.73176 6.01353C9.76678 6.08496 9.8186 6.14684 9.88276 6.19386C9.94693 6.24089 10.0215 6.27166 10.1002 6.28353L13.899 6.8226L11.1746 9.41947C11.1121 9.47994 11.0655 9.55483 11.0389 9.63756C11.0122 9.72029 11.0064 9.80831 11.0218 9.89385L11.6724 13.6035L8.21676 11.8279C8.14994 11.7935 8.07585 11.7755 8.00067 11.7755C7.92549 11.7755 7.85234 11.7935 7.78551 11.8279Z" fill="#393939"/>
</g>
<defs>
<clipPath id="clip0_80_1851">
<rect width="15" height="15" fill="white" transform="translate(0.5 0.5)"/>
</clipPath>
</defs>
</svg>
