<svg width="627" height="569" viewBox="0 0 627 569" fill="none" xmlns="http://www.w3.org/2000/svg">
<path d="M627 435.171H0V435.455H627V435.171Z" fill="#E6E6E6"/>
<path d="M156.524 452.389H114.992V452.674H156.524V452.389Z" fill="#E6E6E6"/>
<path d="M101.85 452.389H77.7856V452.674H101.85V452.389Z" fill="#E6E6E6"/>
<path d="M264.03 456.577H239.965V456.861H264.03V456.577Z" fill="#E6E6E6"/>
<path d="M389.505 462.927H335.345V463.211H389.505V462.927Z" fill="#E6E6E6"/>
<path d="M324.184 462.927H316.246V463.211H324.184V462.927Z" fill="#E6E6E6"/>
<path d="M568.501 456.577H451.026V456.861H568.501V456.577Z" fill="#E6E6E6"/>
<path d="M297.198 384.416H55.0633C53.1665 384.413 51.3484 383.727 50.0083 382.509C48.6682 381.291 47.9155 379.64 47.9155 377.918V69.0309C47.932 67.3194 48.692 65.6829 50.0303 64.4769C51.3687 63.2709 53.1773 62.5928 55.0633 62.5898H297.198C299.097 62.5898 300.919 63.2745 302.261 64.4931C303.604 65.7117 304.359 67.3645 304.359 69.0878V377.918C304.359 379.642 303.604 381.294 302.261 382.513C300.919 383.732 299.097 384.416 297.198 384.416ZM55.0633 62.8174C53.2496 62.8205 51.5113 63.4764 50.23 64.6413C48.9487 65.8063 48.229 67.385 48.229 69.0309V377.918C48.229 379.564 48.9487 381.143 50.23 382.308C51.5113 383.473 53.2496 384.129 55.0633 384.132H297.198C299.013 384.129 300.753 383.473 302.036 382.309C303.319 381.144 304.042 379.565 304.045 377.918V69.0309C304.042 67.3839 303.319 65.8053 302.036 64.6407C300.753 63.4761 299.013 62.8205 297.198 62.8174H55.0633Z" fill="#E6E6E6"/>
<path d="M568.451 384.416H326.303C324.405 384.413 322.586 383.728 321.244 382.51C319.902 381.292 319.146 379.641 319.143 377.918V69.0309C319.163 67.3184 319.926 65.6819 321.266 64.4762C322.606 63.2705 324.416 62.5927 326.303 62.5898H568.451C570.335 62.5958 572.14 63.2752 573.476 64.4809C574.811 65.6866 575.57 67.3214 575.586 69.0309V377.918C575.586 379.638 574.835 381.287 573.498 382.505C572.16 383.723 570.345 384.41 568.451 384.416ZM326.303 62.8174C324.489 62.8205 322.749 63.4761 321.466 64.6407C320.182 65.8053 319.46 67.3839 319.457 69.0309V377.918C319.46 379.565 320.182 381.144 321.466 382.309C322.749 383.473 324.489 384.129 326.303 384.132H568.451C570.266 384.129 572.005 383.473 573.289 382.309C574.572 381.144 575.294 379.565 575.298 377.918V69.0309C575.294 67.3839 574.572 65.8053 573.289 64.6407C572.005 63.4761 570.266 62.8205 568.451 62.8174H326.303Z" fill="#E6E6E6"/>
<path d="M335.32 337.963H307.744V437.231H335.32V337.963Z" fill="#E0E0E0"/>
<path d="M330.078 437.231H335.32V423.711H324.585L330.078 437.231Z" fill="#FAFAFA"/>
<path d="M214.484 337.963H186.909V437.231H214.484V337.963Z" fill="#E0E0E0"/>
<path d="M335.319 337.963H209.919V428.935H335.319V337.963Z" fill="#FAFAFA"/>
<path d="M330.767 342.436V366.504H214.434V342.436H330.73M331.219 341.992H213.982V366.937H331.257V341.992H331.219Z" fill="#E0E0E0"/>
<path d="M215.149 437.231H209.919V423.711H220.641L215.149 437.231Z" fill="#FAFAFA"/>
<path d="M269.848 354.464C269.848 354.962 270.011 355.448 270.315 355.861C270.62 356.275 271.053 356.597 271.559 356.788C272.065 356.978 272.623 357.028 273.16 356.931C273.698 356.834 274.192 356.594 274.579 356.243C274.967 355.891 275.231 355.443 275.338 354.955C275.445 354.467 275.39 353.961 275.18 353.502C274.97 353.042 274.615 352.649 274.159 352.373C273.703 352.097 273.168 351.949 272.619 351.949C271.884 351.949 271.18 352.214 270.66 352.686C270.14 353.158 269.848 353.797 269.848 354.464Z" fill="#E6E6E6"/>
<path d="M330.767 371.409V395.478H214.434V371.409H330.73M331.219 370.977H213.982V395.922H331.257V370.988L331.219 370.977Z" fill="#E0E0E0"/>
<path d="M269.848 383.506C269.848 384.003 270.011 384.489 270.315 384.903C270.62 385.317 271.053 385.639 271.559 385.829C272.065 386.02 272.623 386.069 273.16 385.972C273.698 385.875 274.192 385.636 274.579 385.284C274.967 384.932 275.231 384.484 275.338 383.996C275.445 383.508 275.39 383.003 275.18 382.543C274.97 382.084 274.615 381.691 274.159 381.415C273.703 381.138 273.168 380.991 272.619 380.991C271.884 380.991 271.18 381.256 270.66 381.727C270.14 382.199 269.848 382.839 269.848 383.506Z" fill="#E6E6E6"/>
<path d="M330.767 400.394V424.474H214.434V400.394H330.73M331.219 399.95H213.982V424.907H331.257V399.95H331.219Z" fill="#E0E0E0"/>
<path d="M269.848 412.434C269.851 412.931 270.015 413.416 270.321 413.828C270.627 414.24 271.061 414.56 271.568 414.749C272.074 414.938 272.631 414.986 273.168 414.887C273.705 414.789 274.197 414.549 274.584 414.197C274.97 413.844 275.233 413.396 275.338 412.909C275.444 412.421 275.389 411.916 275.179 411.457C274.969 410.998 274.613 410.606 274.158 410.33C273.702 410.054 273.167 409.907 272.62 409.907C272.255 409.907 271.893 409.973 271.556 410.1C271.219 410.227 270.913 410.413 270.655 410.648C270.398 410.883 270.194 411.161 270.056 411.468C269.917 411.774 269.847 412.102 269.848 412.434Z" fill="#E6E6E6"/>
<path d="M197.643 280.312H170.067V437.242H197.643V280.312Z" fill="#E0E0E0"/>
<path d="M192.401 437.231H197.643V423.711H186.921L192.401 437.231Z" fill="#FAFAFA"/>
<path d="M94.5891 280.312H67.0137V437.242H94.5891V280.312Z" fill="#E0E0E0"/>
<path d="M197.643 280.312H90.0122V428.946H197.643V280.312Z" fill="#FAFAFA"/>
<path d="M193.003 284.5V318.151H94.6517V284.5H193.003ZM193.58 283.988H94.0498V318.64H193.555V283.999L193.58 283.988Z" fill="#E0E0E0"/>
<path d="M193.003 322.259V411.512H146.154V322.259H193.003ZM193.58 321.735H145.589V412.036H193.58V321.735Z" fill="#E0E0E0"/>
<path d="M141.501 322.259V411.512H94.6517V322.259H141.501ZM142.065 321.735H94.0498V412.036H142.04V321.735H142.065Z" fill="#E0E0E0"/>
<path d="M95.2539 437.231H90.0122V423.711H100.746L95.2539 437.231Z" fill="#FAFAFA"/>
<path d="M141.05 301.342C141.047 301.842 141.209 302.332 141.513 302.749C141.817 303.166 142.251 303.491 142.76 303.684C143.268 303.877 143.828 303.929 144.369 303.833C144.91 303.737 145.407 303.497 145.798 303.144C146.188 302.791 146.455 302.341 146.563 301.851C146.672 301.36 146.617 300.852 146.407 300.389C146.197 299.927 145.84 299.532 145.382 299.254C144.924 298.976 144.385 298.827 143.834 298.827C143.098 298.827 142.391 299.092 141.87 299.563C141.348 300.034 141.053 300.674 141.05 301.342Z" fill="#E6E6E6"/>
<path d="M150.981 364.763C150.981 365.263 151.145 365.752 151.452 366.167C151.758 366.583 152.194 366.907 152.703 367.098C153.212 367.289 153.773 367.338 154.313 367.24C154.853 367.141 155.349 366.9 155.738 366.545C156.127 366.191 156.391 365.739 156.497 365.249C156.603 364.758 156.546 364.249 156.334 363.788C156.121 363.327 155.762 362.933 155.303 362.657C154.843 362.38 154.304 362.234 153.753 362.236C153.388 362.236 153.026 362.302 152.689 362.429C152.352 362.556 152.046 362.742 151.789 362.977C151.531 363.212 151.327 363.49 151.189 363.797C151.05 364.103 150.98 364.431 150.981 364.763Z" fill="#E6E6E6"/>
<path d="M131.131 364.763C131.133 365.26 131.298 365.745 131.604 366.157C131.91 366.569 132.344 366.89 132.85 367.079C133.357 367.267 133.914 367.315 134.451 367.217C134.987 367.119 135.48 366.878 135.866 366.526C136.253 366.174 136.515 365.726 136.621 365.238C136.727 364.751 136.672 364.246 136.461 363.787C136.251 363.328 135.896 362.936 135.441 362.66C134.985 362.384 134.45 362.237 133.902 362.237C133.537 362.237 133.176 362.302 132.839 362.429C132.502 362.556 132.196 362.743 131.938 362.977C131.681 363.212 131.477 363.491 131.338 363.797C131.2 364.104 131.129 364.432 131.131 364.763Z" fill="#E6E6E6"/>
<path d="M127.996 236.556H116.371C117.442 241.673 118.117 246.852 118.39 252.055C118.39 257.745 109.537 280.312 122.152 280.312C134.767 280.312 125.914 257.802 125.914 252.055C126.208 246.851 126.903 241.672 127.996 236.556Z" fill="#E0E0E0"/>
<path d="M83.7671 259.635V266.463C83.7803 270.123 85.3885 273.63 88.2406 276.218C91.0927 278.807 94.9572 280.266 98.9907 280.278H106.515C110.548 280.266 114.413 278.807 117.265 276.218C120.117 273.63 121.725 270.123 121.738 266.463V259.635H83.7671Z" fill="#F5F5F5"/>
<path d="M245.37 323.488C245.37 331.454 255.189 337.963 267.19 337.963H278.024C290.025 337.963 299.844 331.454 299.844 323.488H245.37Z" fill="#E0E0E0"/>
<path d="M532.461 311.812C525.89 316.682 516.811 325.593 508.51 338.134C502.967 346.487 499.631 355.204 498.164 366.789C498.164 353.702 498.252 339.647 498.302 326.378C499.97 322.964 503.782 315.089 506.516 308.876C515.632 288.13 519.056 283.02 527.244 265.131C538.192 241.233 549.403 212.942 546.192 215.207C539.646 219.816 514.566 262.434 511.858 268.534C504.475 284.812 499.911 302.028 498.327 319.573C498.327 307.055 498.428 295.675 498.478 286.844C498.653 258.041 499.192 248.744 499.456 245.876C500.472 244.419 501.663 242.724 502.365 241.813C508.259 234.075 510.529 227.497 516.071 215.958C523.946 199.628 530.718 170.62 528.737 172.077C520.485 178.176 513.99 191.263 505.437 207.958C496.885 224.652 499.33 234.246 497.637 248.493C497.286 251.293 497.01 261.854 496.81 276.477C494.603 260.886 490.44 250.622 482.853 241.29C473.523 229.807 464.494 222.058 457.873 218.006C451.252 213.955 469.31 242.155 477.937 254.422C485.624 265.393 492.709 275.054 496.747 284.579C496.534 304.415 496.434 329.519 496.434 352.859C494.452 342.231 491.217 330.771 486.903 321.906C481.712 311.254 473.736 294.912 467.378 289.37C465.861 288.039 474.025 319.823 479.266 328.267C484.508 336.711 488.358 344.689 491.656 349.48C492.421 350.618 494.979 354.908 496.434 357.389C496.434 385.918 496.609 411.091 496.885 419.66H498.239C498.152 417.452 498.127 402.931 498.164 383.722C501.437 373.298 508.911 361.394 515.081 350.538C521.802 338.782 539.032 306.975 532.461 311.812Z" fill="#E0E0E0"/>
<path d="M517.2 437.231H477.899L474.927 402.271H520.172L517.2 437.231Z" fill="#F0F0F0"/>
<path d="M523.094 406.345H471.993L470.539 394.544H524.561L523.094 406.345Z" fill="#F5F5F5"/>
<path d="M155.822 85.9189H85.5352V155.963H155.822V85.9189Z" fill="#E0E0E0"/>
<path d="M163.434 85.9189H90.8271V155.963H163.434V85.9189Z" fill="#F5F5F5"/>
<path d="M157.352 150.443V91.438H96.9093V150.443H157.352Z" fill="white"/>
<path d="M142.693 136.127V105.731H111.556V136.127H142.693Z" fill="#F5F5F5"/>
<path d="M514.202 94.0781H448.907V159.149H514.202V94.0781Z" fill="#E0E0E0"/>
<path d="M521.275 94.0781H453.835V159.149H521.275V94.0781Z" fill="#F5F5F5"/>
<path d="M515.632 154.017V99.2104H459.491V154.017H515.632Z" fill="white"/>
<path d="M487.555 142.512C497.23 142.512 505.073 135.394 505.073 126.614C505.073 117.834 497.23 110.716 487.555 110.716C477.88 110.716 470.037 117.834 470.037 126.614C470.037 135.394 477.88 142.512 487.555 142.512Z" fill="#F5F5F5"/>
<path d="M228.842 127.684H176.701V179.645H228.842V127.684Z" fill="#E0E0E0"/>
<path d="M234.485 127.684H180.626V179.645H234.485V127.684Z" fill="#F5F5F5"/>
<path d="M229.971 175.548V131.78H185.141V175.548H229.971Z" fill="white"/>
<path d="M207.562 142.591L195.298 161.869H219.826L207.562 142.591Z" fill="#F5F5F5"/>
<path d="M313.5 486.563C447.781 486.563 556.638 480.796 556.638 473.681C556.638 466.566 447.781 460.799 313.5 460.799C179.218 460.799 70.3618 466.566 70.3618 473.681C70.3618 480.796 179.218 486.563 313.5 486.563Z" fill="#F5F5F5"/>
<path d="M437.96 185.984L425.52 181.432C425.52 181.432 409.105 208.596 404.403 209.973C398.007 211.839 384.765 217.028 376.915 217.939C375.849 219.077 374.106 222.616 374.269 223.902C384.815 227.1 407.989 222.855 412.955 219.509C424.253 211.919 437.96 185.984 437.96 185.984Z" fill="#E58A7B"/>
<path d="M441.784 179.804C444.104 187.577 431.539 203.213 431.539 203.213L415.074 194.837C415.074 194.837 418.159 188.407 421.921 181.864C427.953 171.292 439.138 170.939 441.784 179.804Z" fill="#D60000"/>
<path opacity="0.2" d="M441.784 179.804C444.104 187.577 431.539 203.213 431.539 203.213L415.074 194.837C415.074 194.837 418.159 188.407 421.921 181.864C427.953 171.292 439.138 170.939 441.784 179.804Z" fill="black"/>
<path opacity="0.2" d="M421.607 198.183L428.091 201.483L429.232 183.423C425.457 186.052 422.799 193.972 421.607 198.183Z" fill="black"/>
<path d="M430.95 173.955C430.95 173.955 418.134 199.833 425.608 248.016H476.106C476.909 240.983 474.25 206.661 483.868 173.522C478.329 172.54 472.724 171.89 467.09 171.576C459.944 171.2 452.78 171.2 445.634 171.576C440.68 172.033 435.771 172.828 430.95 173.955Z" fill="#D60000"/>
<path opacity="0.2" d="M430.95 173.955C430.95 173.955 418.134 199.833 425.608 248.016H476.106C476.909 240.983 474.25 206.661 483.868 173.522C478.329 172.54 472.724 171.89 467.09 171.576C459.944 171.2 452.78 171.2 445.634 171.576C440.68 172.033 435.771 172.828 430.95 173.955Z" fill="black"/>
<g style="mix-blend-mode:multiply">
<path d="M419.238 474.705C419.162 475.934 438.311 476.924 461.999 476.924C485.687 476.924 504.973 475.934 505.049 474.705C505.124 473.476 485.988 472.498 462.287 472.498C438.587 472.498 419.325 473.488 419.238 474.705Z" fill="#E8ECF1"/>
</g>
<path d="M452.946 442.412L443.989 445.559L451.704 463.646L460.661 460.499L452.946 442.412Z" fill="#E58A7B"/>
<path d="M492.885 465.955H483.442L479.981 446.119H489.424L492.885 465.955Z" fill="#E58A7B"/>
<path d="M482.79 464.964H493.399C493.583 464.965 493.761 465.025 493.901 465.133C494.041 465.241 494.134 465.391 494.164 465.556L495.531 473.169C495.56 473.36 495.543 473.555 495.481 473.739C495.42 473.924 495.316 474.094 495.175 474.239C495.035 474.384 494.862 474.499 494.668 474.578C494.474 474.656 494.263 474.696 494.051 474.694C490.352 474.637 488.571 474.433 483.906 474.433C481.034 474.433 475.128 474.706 471.14 474.706C467.153 474.706 466.889 471.155 468.532 470.825C475.906 469.38 478.765 467.411 481.223 465.499C481.656 465.154 482.213 464.964 482.79 464.964Z" fill="#263238"/>
<path d="M451.44 462.028L461.472 459.365C461.651 459.319 461.842 459.331 462.013 459.397C462.184 459.463 462.325 459.58 462.413 459.729L466.175 466.557C466.262 466.731 466.307 466.919 466.305 467.109C466.304 467.3 466.257 467.488 466.168 467.66C466.078 467.833 465.948 467.985 465.787 468.107C465.626 468.229 465.437 468.318 465.234 468.367C461.585 469.277 459.14 469.835 454.575 471.041C451.427 471.872 448.217 473.226 445.107 474.125C442.95 474.751 437.884 474.774 435.263 474.774C431.389 474.774 430.523 471.064 432.191 470.893C436.392 470.472 436.956 470.665 439.276 469.607C443.072 468.101 446.512 465.945 449.409 463.257C449.955 462.692 450.655 462.268 451.44 462.028Z" fill="#263238"/>
<path d="M378.495 217.893L368.112 213.944L363.836 224.391C368.092 224.979 372.421 224.979 376.677 224.391L378.495 217.893Z" fill="#E58A7B"/>
<path d="M360.387 213.671L360.111 220.613L363.836 224.368L368.112 213.921L360.387 213.671Z" fill="#E58A7B"/>
<path d="M454.174 443.948L445.19 447.096L449.169 456.449L458.153 453.301L454.174 443.948Z" fill="#CF6F64"/>
<path d="M489.424 446.119H479.981L481.774 456.35H491.217L489.424 446.119Z" fill="#CF6F64"/>
<path opacity="0.2" d="M424.002 234.986C424.191 237.045 424.404 239.151 424.68 241.313L462.224 230.252C468.088 228.675 473.183 225.331 476.67 220.772C476.821 217.734 477.009 214.536 477.297 211.201C477.423 209.585 477.573 207.924 477.736 206.24C477.899 204.555 478.125 202.689 478.363 200.891L424.002 234.986Z" fill="black"/>
<path d="M436.267 197.66L435.013 197.523C435.753 191.833 440.43 187.349 445.358 187.463V188.601C441.044 188.521 436.931 192.561 436.267 197.66Z" fill="white"/>
<path d="M442.951 208.163H442.737V207.025C447.051 207.173 451.102 203.088 451.766 198.001L453.02 198.138C452.356 203.702 447.829 208.163 442.951 208.163Z" fill="white"/>
<path d="M466.388 149.647C464.62 155.917 462.538 167.4 467.09 171.576C467.09 171.576 463.905 177.938 451.077 177.938C439.352 177.938 445.634 171.576 445.634 171.576C453.434 169.915 453.572 164.748 452.544 159.855L466.388 149.647Z" fill="#E58A7B"/>
<path d="M460.745 153.812L452.556 159.855C452.81 160.979 452.957 162.121 452.995 163.269C455.39 165.431 460.193 159.957 460.682 157.158C460.931 156.056 460.952 154.921 460.745 153.812Z" fill="#CF6F64"/>
<path d="M438.474 149.567C439.043 150.464 439.811 151.244 440.728 151.858C441.645 152.473 442.692 152.91 443.803 153.141C446.813 153.744 448.317 151.229 447.49 148.702C446.75 146.426 444.28 143.365 441.22 143.889C440.564 144.011 439.951 144.275 439.431 144.656C438.91 145.038 438.499 145.528 438.23 146.084C437.961 146.64 437.842 147.247 437.885 147.853C437.927 148.459 438.129 149.047 438.474 149.567Z" fill="#CF6F64"/>
<path d="M443.452 129.505C438.762 131.451 437.107 148.361 443.001 150.865C448.895 153.369 452.33 125.806 443.452 129.505Z" fill="#263238"/>
<path d="M467.817 140.213C466.689 148.703 466.563 153.698 461.547 158.046C459.993 159.488 458.03 160.513 455.874 161.007C453.718 161.5 451.454 161.444 449.332 160.843C447.209 160.243 445.311 159.122 443.846 157.604C442.382 156.086 441.408 154.23 441.032 152.242C439.515 144.617 441.609 132.019 450.989 128.64C452.96 127.851 455.127 127.555 457.266 127.782C459.406 128.009 461.439 128.752 463.156 129.932C464.873 131.113 466.21 132.689 467.03 134.496C467.85 136.304 468.121 138.278 467.817 140.213Z" fill="#E58A7B"/>
<path d="M452.405 133.897C459.353 132.293 464.456 131.2 462.626 136.446C460.205 143.456 457.296 150.239 461.196 150.546C463.579 150.74 474.112 146.688 472.77 142.58C471.604 139.007 476.532 138.028 477.41 136.219C480.658 129.664 471.366 130.529 473.021 126.546C474.677 122.563 465.497 116.144 460.481 119.342C452.318 124.509 438.311 124.429 445.671 115.928C450.951 109.863 441.533 111.103 441.533 111.103C441.533 111.103 447.226 114.164 437.646 118.898C427.514 123.951 436.806 137.527 452.405 133.897Z" fill="#263238"/>
<path d="M471.504 149.567C470.133 151.368 468.072 152.642 465.723 153.141C462.626 153.744 461.435 151.229 462.601 148.702C463.642 146.426 466.501 143.365 469.46 143.889C472.42 144.412 473.097 147.337 471.504 149.567Z" fill="#E58A7B"/>
<path d="M425.608 248.016C425.608 248.016 417.131 316.865 416.466 342.993C415.789 370.169 445.195 454.961 445.195 454.961L460.243 449.271C460.243 449.271 442.687 371.796 445.195 345.11C447.854 316.011 458.839 248.061 458.839 248.061L425.608 248.016Z" fill="#D60000"/>
<path opacity="0.2" d="M446.675 266.918C439.916 279.641 444.468 304.802 448.129 319.71C449.521 309.183 451.177 297.758 452.744 287.186C452.594 270.935 451.202 258.383 446.675 266.918Z" fill="black"/>
<path d="M459.578 444.765C459.654 444.765 461.359 449.112 461.359 449.112L444.004 455.735L441.27 451.115L459.578 444.765Z" fill="#D60000"/>
<path d="M443.527 248.016C443.527 248.016 450.011 313.496 454.299 338.02C459.014 364.888 477.498 454.369 477.498 454.369H494.791C494.791 454.369 484.433 367.062 482.477 340.455C480.345 311.596 476.106 248.016 476.106 248.016H443.527Z" fill="#D60000"/>
<path d="M495.054 450.284C495.129 450.284 495.631 454.665 495.631 454.665H476.62L475.266 449.635L495.054 450.284Z" fill="#D60000"/>
<path opacity="0.2" d="M488.433 445.095C488.394 445.095 488.356 445.083 488.326 445.06C488.296 445.037 488.276 445.005 488.27 444.969C488.17 444.173 478.828 365.309 477.072 341.411C475.166 315.488 471.329 257.985 471.291 257.404C471.289 257.385 471.292 257.366 471.299 257.349C471.305 257.331 471.316 257.314 471.33 257.3C471.345 257.286 471.362 257.275 471.381 257.268C471.4 257.26 471.421 257.256 471.442 257.256C471.483 257.256 471.522 257.27 471.553 257.296C471.583 257.321 471.601 257.356 471.605 257.393C471.605 257.973 475.479 315.431 477.386 341.4C479.141 365.298 488.483 444.105 488.571 444.958C488.575 444.977 488.574 444.996 488.569 445.015C488.564 445.033 488.554 445.051 488.541 445.066C488.528 445.081 488.512 445.093 488.493 445.102C488.475 445.111 488.454 445.116 488.433 445.117V445.095Z" fill="black"/>
<path d="M453.472 142.58C453.472 143.274 452.995 143.832 452.494 143.832C451.992 143.832 451.628 143.274 451.678 142.58C451.729 141.886 452.155 141.328 452.657 141.328C453.158 141.328 453.522 141.897 453.472 142.58Z" fill="#263238"/>
<path d="M444.869 142.58C444.869 143.274 444.38 143.832 443.891 143.832C443.402 143.832 443.026 143.274 443.064 142.58C443.101 141.886 443.553 141.328 444.054 141.328C444.556 141.328 444.92 141.897 444.869 142.58Z" fill="#263238"/>
<path d="M447.578 142.933C446.531 145.053 445.182 147.039 443.565 148.839C444.819 149.977 447.164 149.454 447.164 149.454L447.578 142.933Z" fill="#DF5753"/>
<path d="M447.803 152.355C447.774 152.355 447.746 152.35 447.719 152.34C447.692 152.329 447.668 152.314 447.648 152.295C447.628 152.276 447.613 152.253 447.603 152.228C447.593 152.203 447.589 152.177 447.59 152.151C447.593 152.095 447.62 152.043 447.664 152.005C447.709 151.967 447.767 151.946 447.828 151.946C448.788 151.952 449.736 151.763 450.604 151.393C451.472 151.022 452.238 150.48 452.844 149.806C452.888 149.772 452.944 149.753 453.001 149.753C453.059 149.753 453.115 149.772 453.158 149.806C453.199 149.844 453.221 149.895 453.221 149.949C453.221 150.002 453.199 150.053 453.158 150.091C452.508 150.807 451.69 151.382 450.764 151.774C449.837 152.166 448.826 152.365 447.803 152.355Z" fill="#263238"/>
<path d="M455.001 140.486C454.941 140.514 454.875 140.529 454.807 140.529C454.739 140.529 454.673 140.514 454.613 140.486C454.143 140.211 453.61 140.04 453.054 139.987C452.499 139.933 451.937 139.999 451.415 140.179C451.364 140.202 451.308 140.216 451.252 140.219C451.195 140.223 451.138 140.215 451.084 140.199C451.03 140.182 450.981 140.155 450.939 140.12C450.896 140.086 450.862 140.044 450.838 139.997C450.791 139.896 450.79 139.782 450.835 139.68C450.879 139.578 450.966 139.496 451.076 139.451C451.732 139.208 452.442 139.112 453.148 139.171C453.853 139.231 454.532 139.444 455.127 139.792C455.175 139.822 455.216 139.86 455.248 139.904C455.279 139.948 455.301 139.998 455.312 140.05C455.322 140.101 455.321 140.155 455.309 140.206C455.296 140.258 455.273 140.307 455.24 140.35C455.176 140.415 455.093 140.462 455.001 140.486Z" fill="#263238"/>
<path d="M441.546 138.21C441.479 138.196 441.418 138.164 441.37 138.119C441.329 138.082 441.296 138.038 441.273 137.989C441.25 137.94 441.239 137.888 441.239 137.835C441.239 137.782 441.25 137.729 441.273 137.68C441.296 137.632 441.329 137.587 441.37 137.55C441.851 137.061 442.45 136.679 443.12 136.434C443.79 136.19 444.513 136.089 445.233 136.139C445.29 136.147 445.346 136.166 445.395 136.194C445.445 136.222 445.487 136.26 445.52 136.303C445.553 136.347 445.575 136.396 445.586 136.448C445.597 136.501 445.597 136.554 445.584 136.606C445.557 136.711 445.489 136.804 445.392 136.867C445.295 136.93 445.176 136.958 445.057 136.947C444.487 136.915 443.917 137 443.389 137.197C442.861 137.394 442.39 137.698 442.01 138.085C441.953 138.143 441.879 138.185 441.797 138.207C441.716 138.229 441.629 138.23 441.546 138.21Z" fill="#263238"/>
<path d="M488.722 184.72L475.68 181.568C475.68 181.568 462.889 210.143 458.362 211.998C452.218 214.547 436.656 223.378 430.035 227.554C429.671 228.977 429.959 232.744 430.787 233.779C442.073 231.913 463.679 224.368 468.194 220.533C478.489 211.782 488.722 184.72 488.722 184.72Z" fill="#E58A7B"/>
<path d="M479.617 466.466C478.981 466.512 478.347 466.355 477.824 466.022C477.663 465.89 477.542 465.722 477.474 465.534C477.406 465.347 477.392 465.146 477.435 464.953C477.443 464.832 477.487 464.715 477.562 464.615C477.637 464.515 477.741 464.435 477.862 464.384C478.915 463.894 481.862 465.59 482.201 465.783C482.238 465.804 482.267 465.835 482.282 465.872C482.298 465.909 482.3 465.95 482.288 465.988C482.278 466.028 482.256 466.065 482.225 466.094C482.194 466.124 482.156 466.147 482.113 466.159C481.295 466.341 480.459 466.444 479.617 466.466ZM478.363 464.691C478.268 464.672 478.17 464.672 478.075 464.691C478.027 464.713 477.987 464.748 477.96 464.79C477.934 464.832 477.921 464.881 477.924 464.93C477.891 465.062 477.897 465.2 477.941 465.33C477.985 465.46 478.066 465.577 478.175 465.67C478.664 466.068 479.893 466.113 481.511 465.829C480.548 465.253 479.463 464.866 478.326 464.691H478.363Z" fill="#D60000"/>
<path d="M482.05 466.159C482.017 466.169 481.982 466.169 481.95 466.159C481.009 465.681 479.241 463.803 479.504 462.848C479.544 462.696 479.638 462.561 479.772 462.464C479.907 462.367 480.073 462.314 480.244 462.313C480.413 462.292 480.584 462.305 480.746 462.35C480.908 462.395 481.058 462.472 481.185 462.574C482.226 463.382 482.288 465.863 482.288 465.988C482.294 466.026 482.287 466.064 482.266 466.097C482.246 466.13 482.214 466.156 482.175 466.17C482.133 466.178 482.09 466.174 482.05 466.159ZM480.37 462.688H480.282C479.994 462.688 479.956 462.836 479.943 462.893C479.793 463.451 480.909 464.873 481.837 465.545C481.833 464.583 481.504 463.646 480.896 462.859C480.751 462.744 480.563 462.683 480.37 462.688Z" fill="#D60000"/>
<path d="M446.324 465.044C445.557 465.287 444.721 465.287 443.954 465.044C443.78 464.958 443.632 464.834 443.525 464.683C443.417 464.532 443.353 464.358 443.339 464.179C443.324 464.066 443.339 463.952 443.386 463.847C443.432 463.741 443.506 463.648 443.603 463.576C444.606 462.756 448.707 463.576 449.171 463.735C449.215 463.745 449.254 463.769 449.281 463.802C449.308 463.835 449.322 463.876 449.321 463.917C449.323 463.96 449.311 464.002 449.286 464.039C449.262 464.075 449.226 464.104 449.183 464.122C448.26 464.5 447.303 464.809 446.324 465.044ZM444.28 463.69C444.137 463.716 444.003 463.775 443.891 463.86C443.851 463.887 443.821 463.924 443.803 463.967C443.785 464.009 443.781 464.055 443.791 464.099C443.799 464.219 443.84 464.334 443.91 464.436C443.98 464.537 444.077 464.621 444.192 464.68C444.857 464.998 446.399 464.748 448.393 463.986C447.05 463.678 445.66 463.578 444.28 463.69Z" fill="#D60000"/>
<path d="M449.145 464.122H449.045C447.791 463.917 445.283 462.608 445.208 461.63C445.208 461.402 445.32 461.083 445.922 460.901C446.126 460.836 446.341 460.808 446.557 460.82C446.772 460.831 446.983 460.882 447.176 460.97C448.531 461.573 449.245 463.758 449.283 463.86C449.292 463.895 449.291 463.93 449.28 463.964C449.269 463.998 449.248 464.029 449.22 464.054C449.202 464.081 449.176 464.105 449.145 464.122ZM446.173 461.243H446.048C445.659 461.368 445.659 461.516 445.659 461.561C445.659 462.153 447.477 463.234 448.744 463.598C448.452 462.684 447.835 461.884 446.988 461.322C446.736 461.206 446.446 461.178 446.173 461.243Z" fill="#D60000"/>
<path d="M431.1 226.883L418.021 232.346L416.504 235.76L421.332 238.707C421.332 238.707 430.361 237.819 432.931 232.551L431.1 226.883Z" fill="#E58A7B"/>
<path d="M431.652 233.973C431.36 231.692 430.53 229.495 429.219 227.532L431.288 226.121C432.845 228.383 433.838 230.927 434.198 233.575L431.652 233.973Z" fill="#263238"/>
<path d="M433.884 228.499C434.161 228.894 434.297 229.356 434.273 229.823C434.25 230.291 434.069 230.74 433.754 231.11C433.439 231.481 433.006 231.754 432.514 231.893C432.022 232.032 431.495 232.031 431.004 231.888C430.513 231.746 430.083 231.47 429.771 231.097C429.459 230.725 429.281 230.274 429.262 229.807C429.242 229.34 429.381 228.878 429.661 228.485C429.941 228.093 430.347 227.787 430.824 227.611C431.36 227.364 431.983 227.318 432.556 227.484C433.129 227.65 433.606 228.015 433.884 228.499Z" fill="#263238"/>
<path d="M409.18 236.761L410.923 238.354L422.661 233.802L418.021 232.346L409.18 236.761Z" fill="#E58A7B"/>
<path opacity="0.2" d="M459.578 444.765C459.654 444.765 461.359 449.112 461.359 449.112L444.004 455.735L441.27 451.115L459.578 444.765Z" fill="black"/>
<path opacity="0.2" d="M495.054 450.284C495.129 450.284 495.631 454.665 495.631 454.665H476.62L475.266 449.635L495.054 450.284Z" fill="black"/>
<path d="M492.12 181.443C495.568 191.537 482.088 205.341 482.088 205.341L463.466 198.445C465.673 192.61 468.218 186.886 471.09 181.295C476.808 170.108 488.634 171.258 492.12 181.443Z" fill="#D60000"/>
<path opacity="0.2" d="M492.12 181.443C495.568 191.537 482.088 205.341 482.088 205.341L463.466 198.445C465.673 192.61 468.218 186.886 471.09 181.295C476.808 170.108 488.634 171.258 492.12 181.443Z" fill="black"/>
<path d="M307.079 80.3086H299.066V81.4807H307.079V80.3086Z" fill="#424343"/>
<path d="M410.808 126.701L409.838 146.232L411.129 146.285L412.098 126.754L410.808 126.701Z" fill="#424343"/>
<path d="M408.315 85.5659H260.343L246.574 365.195H394.546L408.315 85.5659Z" fill="#424343"/>
<path opacity="0.56" d="M403.901 89.4126H255.929L242.16 369.042H390.132L403.901 89.4126Z" fill="white"/>
<path opacity="0.07" d="M399.487 93.2476H251.515L237.733 372.877H385.705L399.487 93.2476Z" fill="white"/>
<path d="M382.646 215.207H256.343L255.29 236.601H381.592L382.646 215.207Z" fill="white"/>
<path d="M325.802 199.594H257.108L256.644 209.164H325.338L325.802 199.594Z" fill="#424343"/>
<path d="M379.799 272.949H253.496L252.443 294.344H378.746L379.799 272.949Z" fill="white"/>
<path opacity="0.47" d="M356.637 323.237H271.704L270.438 348.876H355.371L356.637 323.237Z" fill="#D60000"/>
<path d="M350.957 352.86H266.024C265.987 352.868 265.948 352.868 265.911 352.86C265.898 352.826 265.898 352.79 265.911 352.757L267.165 327.107C267.165 327.089 267.169 327.072 267.176 327.056C267.184 327.04 267.195 327.026 267.209 327.014C267.224 327.002 267.24 326.993 267.259 326.987C267.277 326.982 267.296 326.98 267.315 326.981H352.249C352.264 326.974 352.281 326.971 352.299 326.971C352.316 326.971 352.333 326.974 352.349 326.981C352.358 326.995 352.362 327.011 352.362 327.027C352.362 327.043 352.358 327.059 352.349 327.072L351.12 352.78C351.105 352.807 351.081 352.828 351.052 352.843C351.023 352.857 350.99 352.863 350.957 352.86ZM266.174 352.586H350.806L352.06 327.209H267.428L266.174 352.586Z" fill="white"/>
<path d="M310.967 257.336H254.261L253.797 266.918H310.491L310.967 257.336Z" fill="#424343"/>
<path d="M355.02 146.096C354.696 152.323 352.256 158.305 348.035 163.223C344.911 166.938 340.89 169.953 336.282 172.038C331.673 174.124 326.6 175.223 321.451 175.252C317.289 175.281 313.166 174.536 309.334 173.064C305.502 171.592 302.042 169.423 299.169 166.692C296.295 163.96 294.068 160.724 292.625 157.182C291.182 153.64 290.553 149.867 290.778 146.096C291.219 138.271 294.937 130.895 301.172 125.475C307.408 120.056 315.689 117.003 324.322 116.941C328.487 116.905 332.615 117.645 336.451 119.115C340.288 120.585 343.752 122.753 346.629 125.485C349.506 128.218 351.735 131.457 353.178 135.002C354.621 138.547 355.248 142.323 355.02 146.096Z" fill="white"/>
<path d="M358.042 123.04C357.96 124.696 357.312 126.287 356.186 127.592C355.354 128.579 354.283 129.38 353.058 129.934C351.832 130.488 350.483 130.781 349.114 130.79C347.787 130.798 346.478 130.51 345.302 129.953C344.126 129.395 343.119 128.585 342.367 127.592C341.372 126.252 340.88 124.655 340.963 123.04C341.084 120.963 342.074 119.006 343.731 117.568C345.387 116.13 347.586 115.319 349.879 115.302C350.985 115.293 352.081 115.489 353.1 115.879C354.119 116.269 355.039 116.844 355.804 117.569C356.569 118.294 357.162 119.154 357.547 120.095C357.932 121.036 358.1 122.038 358.042 123.04Z" fill="#D60000"/>
<path d="M269.948 225.904C269.888 226.821 269.447 227.684 268.714 228.317C267.981 228.951 267.011 229.308 265.998 229.318C265.51 229.324 265.025 229.238 264.574 229.066C264.123 228.895 263.716 228.641 263.378 228.321C263.039 228.001 262.776 227.622 262.606 227.206C262.436 226.79 262.361 226.347 262.387 225.904C262.441 224.985 262.88 224.12 263.615 223.485C264.349 222.851 265.323 222.495 266.337 222.49C266.825 222.487 267.309 222.574 267.759 222.746C268.209 222.918 268.615 223.171 268.954 223.491C269.292 223.811 269.554 224.189 269.725 224.604C269.896 225.019 269.972 225.462 269.948 225.904Z" fill="#263238"/>
<path d="M286.852 225.904C286.795 226.822 286.355 227.686 285.621 228.32C284.888 228.954 283.915 229.311 282.902 229.318C282.415 229.322 281.931 229.235 281.482 229.063C281.033 228.891 280.627 228.637 280.29 228.317C279.953 227.997 279.691 227.618 279.522 227.203C279.352 226.789 279.278 226.346 279.303 225.904C279.358 224.988 279.795 224.124 280.527 223.489C281.258 222.855 282.229 222.498 283.241 222.49C283.73 222.485 284.214 222.571 284.665 222.742C285.116 222.914 285.523 223.167 285.862 223.487C286.2 223.807 286.463 224.187 286.633 224.603C286.804 225.018 286.878 225.462 286.852 225.904Z" fill="#263238"/>
<path d="M303.769 225.904C303.712 226.822 303.272 227.686 302.538 228.32C301.804 228.954 300.832 229.311 299.819 229.318C299.331 229.322 298.847 229.235 298.397 229.063C297.947 228.891 297.54 228.638 297.202 228.318C296.864 227.998 296.602 227.619 296.431 227.204C296.259 226.789 296.184 226.347 296.207 225.904C296.265 224.986 296.705 224.123 297.439 223.489C298.172 222.855 299.144 222.498 300.158 222.49C300.646 222.485 301.131 222.571 301.582 222.742C302.033 222.914 302.44 223.167 302.778 223.487C303.117 223.807 303.379 224.187 303.55 224.603C303.72 225.018 303.795 225.462 303.769 225.904Z" fill="#263238"/>
<path d="M267.102 283.647C267.042 284.564 266.601 285.426 265.868 286.059C265.135 286.693 264.164 287.051 263.152 287.061C262.664 287.064 262.18 286.977 261.73 286.805C261.28 286.633 260.873 286.38 260.535 286.06C260.197 285.74 259.935 285.361 259.764 284.946C259.592 284.531 259.517 284.089 259.54 283.647C259.598 282.729 260.038 281.865 260.772 281.231C261.505 280.597 262.477 280.24 263.491 280.233C263.979 280.229 264.463 280.316 264.913 280.488C265.363 280.66 265.769 280.913 266.107 281.233C266.445 281.553 266.708 281.932 266.879 282.347C267.05 282.762 267.126 283.204 267.102 283.647Z" fill="#263238"/>
<path d="M284.006 283.647C283.949 284.563 283.511 285.425 282.78 286.058C282.049 286.692 281.08 287.05 280.069 287.061C279.58 287.066 279.095 286.98 278.644 286.809C278.194 286.637 277.786 286.384 277.448 286.064C277.109 285.744 276.847 285.364 276.676 284.948C276.506 284.533 276.431 284.089 276.457 283.647C276.514 282.729 276.955 281.865 277.688 281.231C278.422 280.597 279.394 280.24 280.407 280.233C280.895 280.229 281.378 280.316 281.828 280.488C282.277 280.66 282.683 280.914 283.02 281.234C283.357 281.554 283.618 281.933 283.788 282.348C283.958 282.762 284.032 283.205 284.006 283.647Z" fill="#263238"/>
<path d="M300.96 283.647C300.903 284.565 300.462 285.428 299.729 286.062C298.995 286.697 298.023 287.053 297.01 287.061C296.522 287.063 296.039 286.975 295.59 286.802C295.141 286.629 294.735 286.376 294.397 286.056C294.059 285.737 293.797 285.359 293.625 284.945C293.453 284.53 293.376 284.089 293.398 283.647C293.458 282.73 293.9 281.867 294.633 281.234C295.366 280.6 296.336 280.243 297.348 280.233C297.837 280.227 298.322 280.313 298.773 280.485C299.223 280.656 299.631 280.91 299.969 281.23C300.308 281.55 300.57 281.929 300.741 282.345C300.911 282.761 300.986 283.204 300.96 283.647Z" fill="#263238"/>
<path d="M317.839 283.647C317.779 284.564 317.337 285.426 316.604 286.059C315.871 286.693 314.901 287.051 313.889 287.061C313.401 287.063 312.918 286.975 312.469 286.802C312.02 286.629 311.614 286.376 311.276 286.056C310.938 285.737 310.676 285.359 310.504 284.945C310.332 284.53 310.255 284.089 310.277 283.647C310.337 282.73 310.778 281.867 311.512 281.234C312.245 280.6 313.215 280.242 314.227 280.233C314.715 280.229 315.199 280.316 315.649 280.488C316.099 280.66 316.506 280.913 316.844 281.233C317.182 281.553 317.445 281.932 317.616 282.347C317.787 282.762 317.863 283.204 317.839 283.647Z" fill="#263238"/>
<path d="M334.818 283.647C334.758 284.564 334.317 285.426 333.584 286.059C332.851 286.693 331.88 287.051 330.868 287.061C330.379 287.066 329.894 286.98 329.444 286.809C328.993 286.637 328.586 286.384 328.247 286.064C327.909 285.744 327.646 285.364 327.476 284.948C327.305 284.533 327.231 284.089 327.256 283.647C327.314 282.729 327.754 281.865 328.488 281.231C329.221 280.597 330.193 280.24 331.207 280.233C331.695 280.229 332.179 280.316 332.629 280.488C333.079 280.66 333.485 280.913 333.823 281.233C334.161 281.553 334.424 281.932 334.595 282.347C334.766 282.762 334.842 283.204 334.818 283.647Z" fill="#263238"/>
<path d="M332.251 144.578C337.5 139.92 337.779 132.454 332.873 127.902C327.968 123.35 319.737 123.436 314.488 128.094C309.24 132.752 308.961 140.218 313.866 144.77C318.771 149.322 327.003 149.236 332.251 144.578Z" fill="#D60000"/>
<path d="M348.035 163.223C344.911 166.938 340.89 169.953 336.282 172.038C331.673 174.124 326.6 175.223 321.45 175.252C316.457 175.29 311.53 174.213 307.104 172.115C302.677 170.018 298.888 166.964 296.069 163.223C302.164 157.715 311.807 154.119 322.491 154.119C333.175 154.119 342.48 157.715 348.035 163.223Z" fill="#D60000"/>
<path opacity="0.1" d="M332.251 144.578C337.5 139.92 337.779 132.454 332.873 127.902C327.968 123.35 319.737 123.436 314.488 128.094C309.24 132.752 308.961 140.218 313.866 144.77C318.771 149.322 327.003 149.236 332.251 144.578Z" fill="white"/>
<path opacity="0.1" d="M348.035 163.223C344.911 166.938 340.89 169.953 336.282 172.038C331.673 174.124 326.6 175.223 321.45 175.252C316.457 175.29 311.53 174.213 307.104 172.115C302.677 170.018 298.888 166.964 296.069 163.223C302.164 157.715 311.807 154.119 322.491 154.119C333.175 154.119 342.48 157.715 348.035 163.223Z" fill="white"/>
<path d="M163.534 241.757C162.343 244.124 161.089 246.73 159.998 249.256C158.907 251.783 157.791 254.389 156.825 256.983C154.854 262.097 153.352 267.349 152.336 272.688L152.06 274.36C152.034 274.647 152.064 274.936 152.148 275.214C152.444 276.157 152.91 277.049 153.527 277.854C155.138 279.938 157.006 281.847 159.095 283.544C161.298 285.404 163.609 287.155 166.017 288.79C168.425 290.475 170.958 292.113 173.453 293.661L171.108 297.655C165.15 295.299 159.494 292.357 154.242 288.881C151.44 287.027 148.912 284.855 146.718 282.418C145.418 280.967 144.404 279.323 143.721 277.558C143.324 276.456 143.121 275.304 143.119 274.144C143.119 273.871 143.119 273.473 143.119 273.279V272.722L143.245 271.584C143.963 265.655 145.337 259.806 147.345 254.127C148.323 251.327 149.364 248.539 150.555 245.819C151.747 243.1 152.976 240.437 154.493 237.671L163.534 241.757Z" fill="#E58A7B"/>
<path d="M171.685 292.955L180.551 288.881L178.256 297.712C178.256 297.712 172.175 299.26 169.353 296.574L171.685 292.955Z" fill="#E58A7B"/>
<path d="M188.665 290.327L186.307 297.633L178.256 297.712L180.551 288.881L188.665 290.327Z" fill="#E58A7B"/>
<path d="M201.179 199.15C201.654 200.727 202.314 202.253 203.148 203.702C202.904 203.953 202.59 204.139 202.239 204.241C201.888 204.344 201.513 204.358 201.154 204.282L201.179 199.15Z" fill="#DF5753"/>
<path d="M200.916 199.218C201.436 199.218 201.857 198.633 201.857 197.91C201.857 197.187 201.436 196.601 200.916 196.601C200.397 196.601 199.976 197.187 199.976 197.91C199.976 198.633 200.397 199.218 200.916 199.218Z" fill="#263238"/>
<path d="M200.64 196.647L202.546 196.157C202.546 196.157 201.618 197.5 200.64 196.647Z" fill="#263238"/>
<path d="M176.689 207.503C177.83 212.795 178.971 222.502 174.883 226.041C174.883 226.041 176.488 231.412 187.335 231.412C199.261 231.412 193.028 226.041 193.028 226.041C186.52 224.63 186.683 220.249 187.824 216.129L176.689 207.503Z" fill="#E58A7B"/>
<path d="M173.516 195.44C174.118 204.282 174.168 208.038 179.084 212.578C186.495 219.406 198.333 216.812 200.652 208.026C202.747 200.06 201.417 186.95 191.874 183.434C189.78 182.651 187.5 182.366 185.249 182.605C182.999 182.845 180.854 183.602 179.016 184.804C177.178 186.006 175.708 187.613 174.746 189.474C173.783 191.336 173.36 193.389 173.516 195.44Z" fill="#E58A7B"/>
<path d="M174.482 185.494C169.591 187.11 163.07 185.904 165.628 199.594C168.337 214.092 164.174 218.86 164.174 218.86C164.174 218.86 182.72 222.445 201.656 218.644C201.656 218.644 195.875 209.472 197.493 202.712C199.562 194.177 197.931 191.025 197.931 191.025C197.931 191.025 181.354 183.218 174.482 185.494Z" fill="#263238"/>
<path d="M195.173 200.049C195.178 201.73 195.708 203.376 196.703 204.794C198.032 206.638 199.599 205.932 199.988 203.975C200.339 202.257 200.076 199.218 198.383 198.035C196.69 196.851 195.198 198.012 195.173 200.049Z" fill="#E58A7B"/>
<path d="M170.231 186.985C168.826 183.4 175.523 177.881 189.693 180.157C203.863 182.433 204.478 193.141 204.478 193.141L201.619 190.046L201.744 193.301L187.185 195.838L170.231 186.985Z" fill="#263238"/>
<path d="M171.434 226.644C171.351 226.125 171.494 225.596 171.834 225.171C172.173 224.746 172.683 224.458 173.253 224.368C177.667 223.708 187.699 222.365 192.74 223.003C196.502 223.481 197.48 225.461 197.643 227.088C197.669 227.373 197.627 227.66 197.52 227.929C197.413 228.198 197.244 228.443 197.025 228.648C196.805 228.852 196.539 229.012 196.246 229.116C195.952 229.22 195.638 229.266 195.323 229.25L173.529 228.363C173.015 228.339 172.526 228.155 172.144 227.842C171.763 227.529 171.512 227.106 171.434 226.644Z" fill="#D60000"/>
<path opacity="0.6" d="M171.434 226.644C171.351 226.125 171.494 225.596 171.834 225.171C172.173 224.746 172.683 224.458 173.253 224.368C177.667 223.708 187.699 222.365 192.74 223.003C196.502 223.481 197.48 225.461 197.643 227.088C197.669 227.373 197.627 227.66 197.52 227.929C197.413 228.198 197.244 228.443 197.025 228.648C196.805 228.852 196.539 229.012 196.246 229.116C195.952 229.22 195.638 229.266 195.323 229.25L173.529 228.363C173.015 228.339 172.526 228.155 172.144 227.842C171.763 227.529 171.512 227.106 171.434 226.644Z" fill="black"/>
<path d="M184.037 425.452L192.125 430.551L205.656 413.902L197.568 408.815L184.037 425.452Z" fill="#E58A7B"/>
<path d="M165.177 425.123L173.717 429.538L185.693 411.934L177.153 407.518L165.177 425.123Z" fill="#E58A7B"/>
<path d="M205.644 413.902L198.671 422.482L190.583 417.395L197.555 408.815L205.644 413.902Z" fill="#CF6F64"/>
<path d="M177.14 407.518L185.693 411.945L179.523 421.015L170.971 416.588L177.14 407.518Z" fill="#CF6F64"/>
<path d="M190.859 282.224C190.859 282.224 222.435 318.333 216.503 352.871C211.726 380.764 184.012 418.534 184.012 418.534L170.983 412.662C180.167 395.962 188.004 378.68 194.433 360.951C196.415 355.447 196.994 349.606 196.125 343.869C195.256 338.132 192.962 332.65 189.417 327.835C173.416 306.634 147.784 319.255 165.027 282.224H190.859Z" fill="#D60000"/>
<path opacity="0.6" d="M190.859 282.224C190.859 282.224 222.435 318.333 216.503 352.871C211.726 380.764 184.012 418.534 184.012 418.534L170.983 412.662C180.167 395.962 188.004 378.68 194.433 360.951C196.415 355.447 196.994 349.606 196.125 343.869C195.256 338.132 192.962 332.65 189.417 327.835C173.416 306.634 147.784 319.255 165.027 282.224H190.859Z" fill="black"/>
<path opacity="0.4" d="M206.346 305.416L201.756 301.274C201.756 301.604 210.647 351.414 213.143 365.412C214.615 361.323 215.743 357.138 216.516 352.894C219.45 335.949 213.318 318.64 206.346 305.416Z" fill="black"/>
<path d="M204.954 282.224C204.954 282.224 242.975 327.608 244.054 354.817C244.944 377.577 202.672 421.675 202.672 421.675L190.382 414.46C190.382 414.46 215.124 383.142 221.356 357.56C218.949 332.205 168.036 282.224 168.036 282.224H204.954Z" fill="#D60000"/>
<path opacity="0.6" d="M204.954 282.224C204.954 282.224 242.975 327.608 244.054 354.817C244.944 377.577 202.672 421.675 202.672 421.675L190.382 414.46C190.382 414.46 215.124 383.142 221.356 357.56C218.949 332.205 168.036 282.224 168.036 282.224H204.954Z" fill="black"/>
<path d="M157.917 228.067C153.854 228.943 149.954 242.349 149.954 242.349L165.842 251.976C165.842 251.976 171.134 241.37 169.278 236.727C167.359 231.89 163.02 226.963 157.917 228.067Z" fill="#D60000"/>
<path opacity="0.2" d="M161.026 236.704L159.923 248.391L165.829 251.987C167.46 248.656 168.667 245.166 169.428 241.586L161.026 236.704Z" fill="black"/>
<path d="M209.657 228.328C209.657 228.328 214.347 229.819 204.954 282.213H165.002C165.679 267.419 165.691 258.315 157.917 228.067C163.511 227.02 169.181 226.343 174.883 226.041C180.924 225.648 186.988 225.648 193.028 226.041C200.828 226.69 209.657 228.328 209.657 228.328Z" fill="#D60000"/>
<path d="M213.719 236.704C214.622 238.98 215.575 241.427 216.578 243.782C217.582 246.138 218.535 248.562 219.55 250.952L222.623 258.098L223.4 259.885L223.801 260.773L223.989 261.217C223.989 261.296 223.989 261.296 223.989 261.285C223.76 260.992 223.46 260.75 223.112 260.579C222.616 260.314 222.056 260.162 221.481 260.135C221.004 260.122 220.529 260.204 220.089 260.374C219.513 260.613 219.513 260.716 219.525 260.704C219.629 260.629 219.722 260.541 219.801 260.443C220.495 259.616 221.096 258.727 221.594 257.791C222.184 256.744 222.748 255.629 223.312 254.502C224.416 252.226 225.432 249.871 226.447 247.492C227.463 245.114 228.429 242.713 229.369 240.289L232.228 233.028L237.056 234.166C236.103 239.356 234.874 244.408 233.394 249.552C232.68 252.113 231.839 254.65 230.886 257.211C230.41 258.497 229.883 259.771 229.281 261.08C228.654 262.5 227.881 263.864 226.974 265.154C226.64 265.588 226.272 265.999 225.87 266.383C225.23 267.011 224.453 267.511 223.588 267.851C222.821 268.15 221.99 268.29 221.155 268.261C220.221 268.229 219.31 267.983 218.509 267.544C217.565 267.009 216.781 266.27 216.227 265.393C216.039 265.097 215.876 264.801 215.763 264.585L215.525 264.153L215.048 263.265L214.095 261.501C212.841 259.134 211.587 256.744 210.496 254.343C209.405 251.942 208.252 249.507 207.173 247.06C206.095 244.613 205.129 242.166 204.214 239.526L213.719 236.704Z" fill="#E58A7B"/>
<path d="M209.656 228.328C214.459 229.364 219.864 242.246 219.864 242.246L205.581 253.273C205.581 253.273 196.339 239.23 198.207 234.599C200.151 229.774 203.386 226.974 209.656 228.328Z" fill="#D60000"/>
<path d="M234.498 228.954L239.514 225.153L243 230.081L240.43 234.189C240.43 234.189 236.342 237.603 232.73 235.862C232.157 234.693 232.019 233.386 232.339 232.139C232.658 230.893 233.416 229.774 234.498 228.954Z" fill="#E58A7B"/>
<path d="M248.568 225.165L248.192 226.405L240.254 227.611L239.477 225.153L248.568 225.165Z" fill="#E58A7B"/>
<path d="M203.65 422.255L189.329 413.856L191.9 409.805L207.989 418.784L203.65 422.255Z" fill="#D60000"/>
<path d="M179.322 428.946C178.066 428.807 176.858 428.418 175.786 427.808C175.742 427.794 175.703 427.768 175.676 427.733C175.649 427.699 175.634 427.657 175.634 427.615C175.634 427.572 175.649 427.531 175.676 427.496C175.703 427.461 175.742 427.435 175.786 427.421C176.175 427.308 179.548 426.363 180.526 427.091C180.636 427.174 180.719 427.282 180.768 427.404C180.816 427.526 180.828 427.658 180.802 427.785C180.784 427.99 180.71 428.188 180.584 428.359C180.459 428.53 180.288 428.67 180.087 428.764C179.852 428.88 179.59 428.943 179.322 428.946ZM176.501 427.694C178.068 428.423 179.322 428.684 179.924 428.411C180.055 428.345 180.165 428.25 180.244 428.135C180.323 428.019 180.369 427.887 180.375 427.751C180.375 427.569 180.375 427.49 180.263 427.444C179.736 427.057 177.855 427.353 176.476 427.694H176.501Z" fill="#263238"/>
<path d="M175.874 427.888C175.808 427.887 175.745 427.863 175.698 427.82C175.68 427.788 175.67 427.753 175.67 427.717C175.67 427.682 175.68 427.646 175.698 427.615C175.698 427.513 176.513 425.043 177.793 424.485C177.956 424.418 178.133 424.383 178.313 424.383C178.493 424.383 178.67 424.418 178.833 424.485C179.009 424.536 179.162 424.638 179.266 424.777C179.371 424.915 179.422 425.081 179.41 425.248C179.322 426.272 177.028 427.683 175.974 427.922L175.874 427.888ZM178.307 424.781C178.185 424.785 178.065 424.812 177.956 424.861C177.178 425.202 176.539 426.534 176.225 427.342C177.329 426.921 178.846 425.806 178.896 425.18C178.896 425.077 178.896 424.952 178.608 424.838C178.514 424.792 178.412 424.762 178.307 424.747V424.781Z" fill="#263238"/>
<path d="M197.217 433.863C195.8 433.863 193.831 432.213 192.752 431.2C192.725 431.165 192.71 431.123 192.71 431.08C192.71 431.037 192.725 430.996 192.752 430.961C192.777 430.924 192.812 430.894 192.854 430.874C192.896 430.854 192.943 430.845 192.991 430.847C193.492 430.847 197.844 431.439 198.458 432.554C198.523 432.654 198.557 432.768 198.557 432.884C198.557 433 198.523 433.114 198.458 433.214C198.366 433.388 198.227 433.537 198.053 433.649C197.88 433.76 197.678 433.83 197.467 433.851L197.217 433.863ZM193.58 431.359C195.16 432.747 196.552 433.521 197.342 433.43C197.48 433.414 197.612 433.367 197.726 433.293C197.84 433.22 197.932 433.122 197.994 433.009C198.022 432.97 198.037 432.925 198.037 432.878C198.037 432.832 198.022 432.786 197.994 432.747C197.668 432.133 195.348 431.609 193.58 431.359Z" fill="#263238"/>
<path d="M193.718 431.302C193.437 431.309 193.155 431.29 192.878 431.245C192.839 431.24 192.803 431.226 192.772 431.204C192.741 431.182 192.717 431.153 192.702 431.12C192.684 431.087 192.674 431.05 192.674 431.012C192.674 430.974 192.684 430.937 192.702 430.904C192.778 430.824 194.47 428.969 196.076 428.844C196.53 428.812 196.98 428.943 197.33 429.208C197.819 429.595 197.794 429.937 197.668 430.153C197.355 430.927 195.185 431.302 193.718 431.302ZM193.392 430.881C194.797 430.949 197.041 430.528 197.33 429.971C197.33 429.971 197.43 429.789 197.104 429.538C196.974 429.436 196.823 429.359 196.659 429.312C196.495 429.265 196.322 429.249 196.151 429.265C195.07 429.539 194.107 430.107 193.392 430.893V430.881Z" fill="#263238"/>
<path d="M176.212 426.659L165.578 423.928C165.395 423.877 165.198 423.89 165.024 423.964C164.851 424.037 164.713 424.166 164.638 424.326L161.052 431.643C160.967 431.831 160.928 432.032 160.936 432.235C160.943 432.437 160.998 432.635 161.096 432.817C161.195 432.999 161.334 433.159 161.506 433.289C161.678 433.418 161.877 433.513 162.092 433.567C165.854 434.454 167.66 434.705 172.338 435.922C175.222 436.651 179.335 438.005 183.31 439.029C187.285 440.053 188.614 436.537 187.072 435.786C180.1 432.44 179.548 430.096 177.642 427.592C177.301 427.139 176.795 426.808 176.212 426.659Z" fill="#D60000"/>
<path d="M193.041 429.868L183.962 424.178C183.808 424.076 183.618 424.03 183.429 424.046C183.239 424.063 183.063 424.142 182.934 424.269L176.914 430.141C176.768 430.293 176.658 430.471 176.593 430.665C176.529 430.858 176.51 431.061 176.538 431.261C176.567 431.462 176.642 431.654 176.759 431.826C176.875 431.998 177.031 432.145 177.215 432.258C180.413 434.204 182.068 434.989 186.069 437.504C188.577 439.052 193.43 442.489 196.815 444.628C200.201 446.768 202.722 443.831 201.518 442.671C196.126 437.447 194.947 434.17 194.057 431.2C193.902 430.661 193.542 430.189 193.041 429.868Z" fill="#D60000"/>
<path d="M185.68 419.285L169.315 411.899L171.008 407.871L188.489 415.655L185.68 419.285Z" fill="#D60000"/>
<path d="M164.4 280.085L163.02 283.362C162.882 283.613 163.208 283.874 163.672 283.874H205.155C205.518 283.874 205.819 283.715 205.844 283.51L206.195 280.256C206.195 280.039 205.907 279.846 205.518 279.846H165.052C164.93 279.835 164.807 279.852 164.694 279.893C164.58 279.935 164.479 280.001 164.4 280.085Z" fill="#D60000"/>
<path opacity="0.4" d="M164.4 280.085L163.02 283.362C162.882 283.613 163.208 283.874 163.672 283.874H205.155C205.518 283.874 205.819 283.715 205.844 283.51L206.195 280.256C206.195 280.039 205.907 279.846 205.518 279.846H165.052C164.93 279.835 164.807 279.852 164.694 279.893C164.58 279.935 164.479 280.001 164.4 280.085Z" fill="white"/>
<path d="M170.933 284.193H169.842C169.629 284.193 169.466 284.09 169.478 283.965L169.992 279.743C169.992 279.629 170.193 279.527 170.406 279.527H171.497C171.71 279.527 171.873 279.629 171.861 279.743L171.347 283.965C171.334 284.09 171.146 284.193 170.933 284.193Z" fill="#D60000"/>
<path d="M196.515 284.193H195.436C195.223 284.193 195.06 284.09 195.072 283.965L195.574 279.743C195.574 279.629 195.787 279.527 196 279.527H197.079C197.292 279.527 197.468 279.629 197.443 279.743L196.941 283.965C196.878 284.09 196.74 284.193 196.515 284.193Z" fill="#D60000"/>
<g style="mix-blend-mode:multiply">
<path d="M169.98 476.913C188.534 476.913 203.575 475.925 203.575 474.705C203.575 473.486 188.534 472.498 169.98 472.498C151.426 472.498 136.385 473.486 136.385 474.705C136.385 475.925 151.426 476.913 169.98 476.913Z" fill="#F5F5F5"/>
</g>
<path d="M190.445 471.587C184.501 470.017 177.905 468.002 173.918 465.897C173.805 465.829 173.679 465.795 173.566 465.738V441.316H185.592C186.505 441.267 187.363 440.903 187.99 440.3C188.617 439.696 188.967 438.897 188.967 438.067C188.967 437.237 188.617 436.439 187.99 435.835C187.363 435.231 186.505 434.867 185.592 434.818H173.629V323.499H166.406V434.818H154.455C153.968 434.792 153.479 434.857 153.019 435.008C152.56 435.159 152.139 435.394 151.784 435.699C151.428 436.003 151.144 436.37 150.951 436.777C150.757 437.185 150.657 437.624 150.657 438.067C150.657 438.511 150.757 438.95 150.951 439.357C151.144 439.764 151.428 440.131 151.784 440.436C152.139 440.74 152.56 440.975 153.019 441.126C153.479 441.278 153.968 441.342 154.455 441.316H166.406V465.704C166.293 465.704 166.18 465.795 166.068 465.863C162.017 468.002 155.471 470.017 149.527 471.553C149.126 471.663 148.781 471.9 148.555 472.221C148.33 472.542 148.238 472.926 148.297 473.302C148.356 473.679 148.562 474.024 148.878 474.275C149.193 474.527 149.597 474.667 150.016 474.671H189.956C190.357 474.646 190.736 474.497 191.031 474.249C191.325 474.001 191.517 473.669 191.575 473.308C191.632 472.948 191.551 472.58 191.345 472.266C191.14 471.953 190.822 471.713 190.445 471.587Z" fill="#E0E0E0"/>
<path d="M192.289 312.165H147.696C144.109 312.165 141.201 314.804 141.201 318.06V330.089C141.201 333.344 144.109 335.983 147.696 335.983H192.289C195.876 335.983 198.784 333.344 198.784 330.089V318.06C198.784 314.804 195.876 312.165 192.289 312.165Z" fill="#D60000"/>
<path d="M147.283 335.995V338.066C147.283 339.773 149.327 341.161 151.835 341.161H188.201C190.709 341.161 192.753 339.773 192.753 338.066V335.995H147.283Z" fill="#D60000"/>
<path opacity="0.3" d="M147.283 335.995V338.066C147.283 339.773 149.327 341.161 151.835 341.161H188.201C190.709 341.161 192.753 339.773 192.753 338.066V335.995H147.283Z" fill="white"/>
</svg>
